# xmcd
#
# Track frame offsets: 
#        150
#        14107
#        29797
#        45202
#        60327
#        79725
#        96262
#        112990
#        125247
#        141065
#        157672
#        178762
#
# Disc length: 3112 seconds
#
# Revision: 1
# Processed by: cddbd v1.5.2PL0 Copyright (c) Steve Scherf et al.
# Submitted via: ExactAudioCopy v1.0b1
#
DISCID=9a0c260c
DTITLE=The Chieftains - Another Country
DYEAR=1992
DGENRE=Country
TTITLE0=Happy to Meet (Jerry Douglas)
TTITLE1=I Can't Stop Loving You (Don Williams)
TTITLE2=Morning Dew and Wabash Cannonball and Father Kelly's Reels (Ricky 
TTITLE2=Skaggs)
TTITLE3=Heartbreak Hotel and The Cliffs of Moher Jig (Chet Atkins)
TTITLE4=Goodnight Irene (Willie Nelson)
TTITLE5=Cúnla and The Friar's Breeches (Colin James)
TTITLE6=Nobody's Darlin' But Mine (Emmylou Harris)
TTITLE7=Cotton-Eyed Joe (Ricky Skaggs)
TTITLE8=Tahitian Skies and  Chief O'Neill's Hornpipe (Chet Atkins)
TTITLE9=Killybegs (Jerry Douglas)
TTITLE10=Paddy's Green Shamrock Shore (Jerry Douglas)
TTITLE11=Finale: Did You Ever Go A-Courtin' and Uncle Joe  and Will the Ci
TTITLE11=rcle Be Unbroken (Ricky Skaggs and Emmylou Harris)
EXTD=LABEL =BMG Music\nID =09026-60939-2\nUPC =09026-60939-22\nCOPY
EXTD=RIGHT =1992
EXTT0=
EXTT1=
EXTT2=
EXTT3=
EXTT4=
EXTT5=
EXTT6=
EXTT7=
EXTT8=
EXTT9=
EXTT10=
EXTT11=
PLAYORDER=
